<?xml version="1.0" encoding="utf-8"?>
<!-- Generator: Adobe Illustrator 17.0.0, SVG Export Plug-In . SVG Version: 6.00 Build 0)  -->
<!DOCTYPE svg PUBLIC "-//W3C//DTD SVG 1.1//EN" "http://www.w3.org/Graphics/SVG/1.1/DTD/svg11.dtd">
<svg version="1.1" xmlns="http://www.w3.org/2000/svg" xmlns:xlink="http://www.w3.org/1999/xlink" x="0px" y="0px"
	 width="76.611px" height="99.125px" viewBox="0 0 76.611 99.125" enable-background="new 0 0 76.611 99.125" xml:space="preserve">
<g id="Layer_1">
</g>
<g id="Layer_2">
</g>
<g id="Layer_3">
	<g>
		<g>
			<path fill="#FFFFFF" d="M54.714,82.195H24.501c-5.032,0-9.125-4.093-9.125-9.124v-2.192c0-0.828,0.671-1.5,1.5-1.5
				s1.5,0.672,1.5,1.5v2.192c0,3.377,2.748,6.124,6.125,6.124h30.213c0.829,0,1.5,0.672,1.5,1.5S55.543,82.195,54.714,82.195z"/>
		</g>
		<g>
			<path fill="#FFFFFF" d="M69.569,81.903c-0.654,0-1.256-0.432-1.442-1.093c-0.225-0.797,0.238-1.626,1.036-1.851
				c2.619-0.739,4.448-3.161,4.448-5.889V9.124C73.611,5.747,70.863,3,67.486,3H24.501c-3.377,0-6.125,2.747-6.125,6.124v29.35
				c0,0.828-0.671,1.5-1.5,1.5s-1.5-0.672-1.5-1.5V9.124C15.376,4.093,19.469,0,24.501,0h42.984c5.032,0,9.125,4.093,9.125,9.124
				v63.947c0,4.064-2.728,7.673-6.633,8.775C69.842,81.886,69.704,81.903,69.569,81.903z"/>
		</g>
		<path fill="#FFFFFF" d="M48.805,38.473H7.625C3.414,38.473,0,41.887,0,46.098v17.156c0,4.211,3.414,7.625,7.625,7.625h41.18
			c4.211,0,7.625-3.414,7.625-7.625V46.098C56.43,41.887,53.016,38.473,48.805,38.473z M17.162,66.746
			c-6.468,0-11.859-4.672-11.859-12.056c0-7.381,5.587-12.085,11.793-12.085c6.402,0,9.702,3.919,10.618,7.676l-4.248,1.34
			c-0.555-2.221-2.353-4.672-6.37-4.672c-3.462,0-7.121,2.483-7.121,7.742c0,4.935,3.462,7.644,7.187,7.644
			c3.951,0,5.879-2.579,6.5-4.736l4.213,1.274C26.995,62.433,23.662,66.746,17.162,66.746z M41.985,66.256h-4.638l-8.559-23.162
			h4.932l6.044,17.216l6.044-17.216h4.77L41.985,66.256z"/>
		<path fill="#FFFFFF" d="M66.395,86.725V74.771c0-1.056-0.856-1.911-1.911-1.911h-4.679c-1.056,0-1.911,0.856-1.911,1.911v11.954
			h-3.623c-1.664,0-2.533,1.978-1.408,3.204l7.874,8.578c0.757,0.825,2.059,0.825,2.816,0l7.873-8.578
			c1.125-1.226,0.256-3.204-1.408-3.204H66.395z"/>
	</g>
</g>
</svg>
