<?xml version="1.0" encoding="utf-8"?>
<!-- Generator: Adobe Illustrator 17.0.0, SVG Export Plug-In . SVG Version: 6.00 Build 0)  -->
<!DOCTYPE svg PUBLIC "-//W3C//DTD SVG 1.1//EN" "http://www.w3.org/Graphics/SVG/1.1/DTD/svg11.dtd">
<svg version="1.1" xmlns="http://www.w3.org/2000/svg" xmlns:xlink="http://www.w3.org/1999/xlink" x="0px" y="0px"
	 width="69.411px" height="76.178px" viewBox="0 0 69.411 76.178" enable-background="new 0 0 69.411 76.178" xml:space="preserve">
<g id="Layer_1">
</g>
<g id="Layer_2">
</g>
<g id="Layer_3">
	<path fill="#FFFFFF" d="M66.914,27.983l-0.978-1.023l-0.292-0.292L49.059,43.233l-5.344,5.337l-2.319-2.313l-0.241-0.242
		c-1.207-1.214-2.681-2.008-4.232-2.383c-1.735-0.419-3.565-0.318-5.242,0.299c-1.137,0.413-2.205,1.061-3.126,1.957
		c-0.051,0.038-0.095,0.083-0.14,0.127l-2.554,2.554l-4.842-4.835L3.857,26.604l-0.54,0.534l-0.559,0.559
		C0.979,29.578,0,32.043,0,34.636v31.433c0,5.572,4.537,10.109,10.109,10.109h49.193c5.572,0,10.109-4.537,10.109-10.109V34.636
		C69.411,32.183,68.521,29.819,66.914,27.983z M5.128,66.069V34.636c0-0.756,0.172-1.493,0.496-2.16l18.166,18.166L5.827,68.604
		C5.388,67.861,5.128,66.996,5.128,66.069z M59.302,71.05H10.109c-0.756,0-1.468-0.172-2.109-0.477l20.193-20.193l2.294-2.294
		c0.305-0.305,0.629-0.565,0.972-0.794c2.065-1.347,4.765-1.309,6.799,0.102c0.292,0.203,0.566,0.432,0.826,0.693l2.281,2.281
		l20.161,20.155C60.852,70.853,60.102,71.05,59.302,71.05z M64.283,66.069c0,0.883-0.235,1.709-0.635,2.434L45.787,50.641
		l18.039-18.045c0.286,0.642,0.457,1.328,0.457,2.04V66.069z M54.034,13.47H15.377c-3.781,0-6.856,3.082-6.856,6.862v8.273
		l2.929,2.929V20.333c0-2.167,1.76-3.933,3.927-3.933h38.658c2.167,0,3.927,1.766,3.927,3.933v11.723l2.929-2.929v-8.794
		C60.89,16.552,57.815,13.47,54.034,13.47z M41.936,2.955C40.024,1.048,37.489,0,34.788,0c-2.7,0-5.236,1.048-7.142,2.955
		l-8.743,8.686h7.275l5.09-5.058c0.94-0.94,2.192-1.455,3.52-1.455c1.328,0,2.58,0.515,3.52,1.455l5.058,5.058h7.25L41.936,2.955z"
		/>
</g>
</svg>
