<?xml version="1.0" encoding="utf-8"?>
<!-- Generator: Adobe Illustrator 17.0.0, SVG Export Plug-In . SVG Version: 6.00 Build 0)  -->
<!DOCTYPE svg PUBLIC "-//W3C//DTD SVG 1.1//EN" "http://www.w3.org/Graphics/SVG/1.1/DTD/svg11.dtd">
<svg version="1.1" xmlns="http://www.w3.org/2000/svg" xmlns:xlink="http://www.w3.org/1999/xlink" x="0px" y="0px"
	 width="76.612px" height="99.125px" viewBox="0 0 76.612 99.125" enable-background="new 0 0 76.612 99.125" xml:space="preserve">
<g id="Layer_1">
</g>
<g id="Layer_2">
</g>
<g id="Layer_3">
	<g>
		<g>
			<path fill="#FFFFFF" d="M54.716,82.195H24.503c-5.031,0-9.125-4.093-9.125-9.124v-2.192c0-0.828,0.671-1.5,1.5-1.5
				s1.5,0.672,1.5,1.5v2.192c0,3.377,2.748,6.124,6.125,6.124h30.213c0.829,0,1.5,0.672,1.5,1.5S55.545,82.195,54.716,82.195z"/>
		</g>
		<g>
			<path fill="#FFFFFF" d="M69.571,81.903c-0.654,0-1.256-0.432-1.442-1.093c-0.225-0.797,0.239-1.626,1.036-1.851
				c2.619-0.739,4.448-3.161,4.448-5.889V9.124C73.612,5.747,70.865,3,67.488,3H24.503c-3.377,0-6.125,2.747-6.125,6.124v29.35
				c0,0.828-0.671,1.5-1.5,1.5s-1.5-0.672-1.5-1.5V9.124C15.379,4.093,19.472,0,24.503,0h42.985c5.031,0,9.125,4.093,9.125,9.124
				v63.947c0,4.064-2.728,7.673-6.633,8.775C69.843,81.886,69.706,81.903,69.571,81.903z"/>
		</g>
		<g>
			<path fill="#FFFFFF" d="M19.611,51.465c-1.624,0-3.293,1.133-3.293,3.516c0,2.384,1.669,3.516,3.293,3.516
				c1.638,0,3.307-1.133,3.307-3.516C22.919,52.598,21.25,51.465,19.611,51.465z"/>
			<path fill="#FFFFFF" d="M48.805,38.473H7.625C3.414,38.473,0,41.887,0,46.098v17.156c0,4.211,3.414,7.625,7.625,7.625h41.18
				c4.211,0,7.625-3.414,7.625-7.625V46.098C56.43,41.887,53.016,38.473,48.805,38.473z M13.19,51.659H8.571v2.608h4.113v1.892
				H8.587v4.112H6.515V49.707h6.674V51.659z M19.611,60.495c-2.861,0-5.423-2.101-5.423-5.498c0-3.411,2.563-5.512,5.423-5.512
				c2.875,0,5.438,2.101,5.438,5.512C25.049,58.394,22.487,60.495,19.611,60.495z M33.601,60.271h-6.764V49.707h2.056v8.597h4.708
				V60.271z M37.266,60.271H35.18V49.707h2.086V60.271z M44.477,60.495c-2.861,0-5.423-2.101-5.423-5.498
				c0-3.411,2.563-5.512,5.423-5.512c2.875,0,5.438,2.101,5.438,5.512C49.915,58.394,47.352,60.495,44.477,60.495z"/>
			<path fill="#FFFFFF" d="M44.477,51.465c-1.624,0-3.293,1.133-3.293,3.516c0,2.384,1.669,3.516,3.293,3.516
				c1.638,0,3.307-1.133,3.307-3.516C47.784,52.598,46.115,51.465,44.477,51.465z"/>
		</g>
		<path fill="#FFFFFF" d="M66.395,86.725V74.771c0-1.056-0.856-1.911-1.911-1.911h-4.679c-1.056,0-1.911,0.856-1.911,1.911v11.954
			h-3.623c-1.664,0-2.533,1.978-1.408,3.204l7.874,8.578c0.757,0.825,2.059,0.825,2.816,0l7.873-8.578
			c1.125-1.226,0.256-3.204-1.408-3.204H66.395z"/>
	</g>
</g>
</svg>
