<?xml version="1.0" encoding="utf-8"?>
<!-- Generator: Adobe Illustrator 17.0.0, SVG Export Plug-In . SVG Version: 6.00 Build 0)  -->
<!DOCTYPE svg PUBLIC "-//W3C//DTD SVG 1.1//EN" "http://www.w3.org/Graphics/SVG/1.1/DTD/svg11.dtd">
<svg version="1.1" xmlns="http://www.w3.org/2000/svg" xmlns:xlink="http://www.w3.org/1999/xlink" x="0px" y="0px" width="75.95px"
	 height="75.954px" viewBox="0 0 75.95 75.954" enable-background="new 0 0 75.95 75.954" xml:space="preserve">
<g id="Layer_1">
</g>
<g id="Layer_2">
</g>
<g id="Layer_3">
	<g>
		<g>
			<path fill="#FFFFFF" d="M70.329,0H5.6C2.51,0,0,2.452,0,5.476v64.997c0,3.025,2.51,5.48,5.6,5.48h64.729
				c3.099,0,5.621-2.456,5.621-5.48V5.476C75.95,2.452,73.428,0,70.329,0z M22.528,64.721H11.25V28.474h11.279V64.721z
				 M16.895,23.523c-3.618,0-6.54-2.928-6.54-6.533s2.922-6.533,6.54-6.533c3.602,0,6.527,2.928,6.527,6.533
				S20.497,23.523,16.895,23.523z M64.721,64.721H53.458V47.092c0-4.203-0.074-9.61-5.855-9.61c-5.86,0-6.754,4.582-6.754,9.309
				v17.929H29.595V28.474h10.796v4.955h0.157c1.504-2.849,5.175-5.854,10.656-5.854c11.41,0,13.516,7.504,13.516,17.266V64.721z"/>
		</g>
	</g>
</g>
</svg>
