<?xml version="1.0" encoding="utf-8"?>
<!-- Generator: Adobe Illustrator 17.0.0, SVG Export Plug-In . SVG Version: 6.00 Build 0)  -->
<!DOCTYPE svg PUBLIC "-//W3C//DTD SVG 1.1//EN" "http://www.w3.org/Graphics/SVG/1.1/DTD/svg11.dtd">
<svg version="1.1" xmlns="http://www.w3.org/2000/svg" xmlns:xlink="http://www.w3.org/1999/xlink" x="0px" y="0px"
	 width="230.332px" height="26.376px" viewBox="0 0 230.332 26.376" enable-background="new 0 0 230.332 26.376"
	 xml:space="preserve">
<g id="Layer_1">
</g>
<g id="Layer_2">
</g>
<g id="Layer_3">
	<g>
		<path fill="#FFFFFF" d="M5.015,12.471V7.297h2.972v5.174h5.042v2.892H7.987v5.2H5.015v-5.2H0v-2.892H5.015z"/>
		<path fill="#FFFFFF" d="M15.176,14.223l7.244-9.713h4.511v10.402h2.839v3.131h-2.839v3.687h-3.609v-3.687h-8.146V14.223z
			 M23.322,8.331l-4.909,6.581h4.909V8.331z"/>
		<path fill="#FFFFFF" d="M31.016,14.223l7.244-9.713h4.511v10.402h2.839v3.131H42.77v3.687h-3.609v-3.687h-8.146V14.223z
			 M39.162,8.331l-4.909,6.581h4.909V8.331z"/>
		<path fill="#FFFFFF" d="M59.273,0l2.043,1.884c-2.839,3.026-4.643,6.528-4.643,11.303c0,4.778,1.804,8.306,4.643,11.331
			l-2.043,1.858c-3.104-3.026-5.572-7.112-5.572-13.189C53.701,7.112,56.169,3.052,59.273,0z"/>
		<path fill="#FFFFFF" d="M63.386,7.006c1.141-1.698,2.999-2.894,5.679-2.894s4.537,1.196,5.652,2.894
			c1.168,1.778,1.539,3.927,1.539,6.129s-0.371,4.351-1.539,6.129c-1.114,1.698-2.972,2.892-5.652,2.892s-4.537-1.194-5.679-2.892
			c-1.167-1.778-1.512-3.927-1.512-6.129S62.219,8.784,63.386,7.006z M66.464,17.512c0.53,0.849,1.353,1.407,2.6,1.407
			c1.274,0,2.043-0.558,2.574-1.407c0.69-1.034,0.955-2.573,0.955-4.377s-0.265-3.345-0.955-4.379
			c-0.531-0.849-1.301-1.405-2.574-1.405c-1.247,0-2.07,0.556-2.6,1.405c-0.664,1.034-0.929,2.575-0.929,4.379
			S65.8,16.478,66.464,17.512z"/>
		<path fill="#FFFFFF" d="M78.855,26.376l-2.043-1.858c2.839-3.026,4.643-6.554,4.643-11.331c0-4.776-1.804-8.278-4.643-11.303
			L78.855,0c3.104,3.052,5.572,7.112,5.572,13.187C84.427,19.264,81.959,23.35,78.855,26.376z"/>
		<path fill="#FFFFFF" d="M105.335,7.562c-1.3,1.114-6.129,5.493-6.898,14.169h-3.795c0.717-9.26,6.475-14.064,6.475-14.064h-8.863
			V4.511h13.081V7.562z"/>
		<path fill="#FFFFFF" d="M107.881,18.23c0.611,0.345,1.858,0.743,3.052,0.743c3.131,0,5.227-1.726,5.466-4.883
			c-0.717,1.088-2.176,1.858-3.98,1.858c-3.21,0-5.944-2.228-5.944-5.784c0-3.53,2.786-6.051,6.607-6.051
			c3.741,0,6.872,2.655,6.872,8.146c0,6.211-3.104,9.872-8.995,9.872c-1.46,0-3.078-0.399-3.98-0.957L107.881,18.23z M112.95,7.217
			c-1.593,0-2.946,1.14-2.946,2.838c0,1.726,1.327,2.84,2.946,2.84s2.972-1.142,2.972-2.84S114.568,7.217,112.95,7.217z"/>
		<path fill="#FFFFFF" d="M134.256,7.562c-1.3,1.114-6.129,5.493-6.898,14.169h-3.795c0.717-9.26,6.475-14.064,6.475-14.064h-8.863
			V4.511h13.081V7.562z"/>
		<path fill="#FFFFFF" d="M139.483,21.732V10.215h-4.14V7.747c2.521-0.026,4.272-1.433,4.617-3.237h3.158v17.221H139.483z"/>
		<path fill="#FFFFFF" d="M147.416,18.23c0.611,0.345,1.858,0.743,3.052,0.743c3.131,0,5.227-1.726,5.466-4.883
			c-0.717,1.088-2.176,1.858-3.98,1.858c-3.21,0-5.944-2.228-5.944-5.784c0-3.53,2.786-6.051,6.607-6.051
			c3.741,0,6.872,2.655,6.872,8.146c0,6.211-3.104,9.872-8.995,9.872c-1.46,0-3.078-0.399-3.98-0.957L147.416,18.23z M152.484,7.217
			c-1.593,0-2.946,1.14-2.946,2.838c0,1.726,1.327,2.84,2.946,2.84s2.972-1.142,2.972-2.84S154.103,7.217,152.484,7.217z"/>
		<path fill="#FFFFFF" d="M161.426,14.223l7.244-9.713h4.511v10.402h2.839v3.131h-2.839v3.687h-3.609v-3.687h-8.146V14.223z
			 M169.572,8.331l-4.909,6.581h4.909V8.331z"/>
		<path fill="#FFFFFF" d="M180.98,21.732V10.215h-4.14V7.747c2.521-0.026,4.272-1.433,4.617-3.237h3.157v17.221H180.98z"/>
		<path fill="#FFFFFF" d="M188.913,18.23c0.611,0.345,1.858,0.743,3.052,0.743c3.131,0,5.227-1.726,5.466-4.883
			c-0.717,1.088-2.176,1.858-3.98,1.858c-3.21,0-5.944-2.228-5.944-5.784c0-3.53,2.786-6.051,6.607-6.051
			c3.741,0,6.872,2.655,6.872,8.146c0,6.211-3.104,9.872-8.995,9.872c-1.459,0-3.078-0.399-3.98-0.957L188.913,18.23z
			 M193.981,7.217c-1.593,0-2.946,1.14-2.946,2.838c0,1.726,1.327,2.84,2.946,2.84s2.972-1.142,2.972-2.84
			S195.6,7.217,193.981,7.217z"/>
		<path fill="#FFFFFF" d="M206.081,11.542l4.511-3.875h-7.536V4.511h12.179v2.946l-4.458,3.715c2.601,0.106,4.989,2.095,4.989,5.254
			c0,2.97-2.442,5.704-6.607,5.704c-4.006,0-6.448-2.601-6.66-5.493l3.529-0.69c0.08,1.75,1.327,3.026,3.131,3.026
			c1.831,0,2.919-1.168,2.919-2.601c0-1.618-1.168-2.547-2.812-2.547c-0.743,0-1.195,0.132-1.566,0.265L206.081,11.542z"/>
		<path fill="#FFFFFF" d="M220.647,11.542l4.511-3.875h-7.536V4.511H229.8v2.946l-4.458,3.715c2.601,0.106,4.989,2.095,4.989,5.254
			c0,2.97-2.442,5.704-6.607,5.704c-4.006,0-6.448-2.601-6.66-5.493l3.529-0.69c0.08,1.75,1.327,3.026,3.131,3.026
			c1.831,0,2.919-1.168,2.919-2.601c0-1.618-1.168-2.547-2.812-2.547c-0.743,0-1.195,0.132-1.566,0.265L220.647,11.542z"/>
	</g>
</g>
</svg>
