<?xml version="1.0" encoding="utf-8"?>
<!-- Generator: Adobe Illustrator 17.0.0, SVG Export Plug-In . SVG Version: 6.00 Build 0)  -->
<!DOCTYPE svg PUBLIC "-//W3C//DTD SVG 1.1//EN" "http://www.w3.org/Graphics/SVG/1.1/DTD/svg11.dtd">
<svg version="1.1" xmlns="http://www.w3.org/2000/svg" xmlns:xlink="http://www.w3.org/1999/xlink" x="0px" y="0px"
	 width="44.681px" height="76.873px" viewBox="0 0 44.681 76.873" enable-background="new 0 0 44.681 76.873" xml:space="preserve">
<g id="Layer_1">
</g>
<g id="Layer_2">
</g>
<g id="Layer_3">
	<path fill="#FFFFFF" d="M39.685,0H4.995C2.236,0,0,2.236,0,4.995v66.883c0,2.758,2.236,4.995,4.995,4.995h34.69
		c2.758,0,4.996-2.238,4.996-4.995V4.995C44.681,2.236,42.443,0,39.685,0z M15.445,4.596h13.792c0.634,0,1.149,0.515,1.149,1.15
		c0,0.634-0.515,1.148-1.149,1.148H15.445c-0.634,0-1.149-0.514-1.149-1.148C14.295,5.111,14.81,4.596,15.445,4.596z M22.341,73.807
		c-1.986,0-3.596-1.61-3.596-3.595c0-1.986,1.61-3.596,3.596-3.596c1.986,0,3.595,1.61,3.595,3.596
		C25.936,72.197,24.326,73.807,22.341,73.807z M39.345,62.898H5.336V10.848h34.009V62.898z"/>
</g>
</svg>
