<?xml version="1.0" encoding="utf-8"?>
<!-- Generator: Adobe Illustrator 17.0.0, SVG Export Plug-In . SVG Version: 6.00 Build 0)  -->
<!DOCTYPE svg PUBLIC "-//W3C//DTD SVG 1.1//EN" "http://www.w3.org/Graphics/SVG/1.1/DTD/svg11.dtd">
<svg version="1.1" id="Layer_1" xmlns="http://www.w3.org/2000/svg" xmlns:xlink="http://www.w3.org/1999/xlink" x="0px" y="0px"
	 width="130.945px" height="29.985px" viewBox="0 0 130.945 29.985" enable-background="new 0 0 130.945 29.985"
	 xml:space="preserve">
<g>
	<g>
		<g>
			<path fill="#D1D3D4" d="M14.81,1.905l11.285,25.264c0.238,0.594-0.039,1.307-0.633,1.584c-0.475,0.238-1.307,0.079-1.624-0.594
				l-3.167-7.128H6.415l-3.326,7.128c-0.317,0.673-1.148,0.832-1.623,0.594c-0.634-0.277-0.872-0.99-0.594-1.624L12.553,1.866
				c0.197-0.436,0.633-0.713,1.148-0.673C14.176,1.193,14.612,1.47,14.81,1.905z M13.662,5.35L7.524,18.576h12.037L13.662,5.35z"/>
			<path fill="#D1D3D4" d="M24.984,29.614c-0.789,0-1.508-0.445-1.831-1.133l-2.974-6.692H6.897l-3.122,6.691
				c-0.324,0.69-1.043,1.135-1.831,1.135c-0.293,0-0.576-0.064-0.816-0.184c-0.462-0.201-0.835-0.598-1.014-1.102
				c-0.171-0.482-0.148-1.017,0.066-1.503L11.866,1.548c0.31-0.686,0.977-1.116,1.737-1.116l0.156,0.006c0.001,0,0.003,0,0.005,0
				c0.713,0,1.416,0.453,1.734,1.154l11.287,25.269c0.399,0.991-0.057,2.135-1.003,2.578C25.56,29.55,25.278,29.614,24.984,29.614z
				 M5.933,20.274h15.23l3.368,7.577c0.12,0.258,0.519,0.26,0.594,0.225c0.241-0.113,0.358-0.401,0.268-0.625L14.119,2.214
				c-0.075-0.164-0.247-0.253-0.435-0.264c-0.249,0-0.376,0.084-0.442,0.228L1.559,27.447c-0.052,0.119-0.061,0.256-0.019,0.374
				c0.039,0.108,0.116,0.189,0.229,0.239c0.19,0.091,0.505,0.056,0.635-0.223L5.933,20.274z M20.728,19.333H6.338l7.337-15.81
				L20.728,19.333z M8.71,17.819h9.685L13.648,7.177L8.71,17.819z"/>
		</g>
		<g>
			<path fill="#D1D3D4" d="M40.031,1.193c4.118,0,7.444,3.326,7.444,7.405c0,2.02-0.831,3.96-2.256,5.306
				c1.94,1.584,3.167,3.96,3.167,6.573c0,4.593-3.722,8.395-8.276,8.395h-6.969c-0.673,0-1.228-0.554-1.228-1.228V2.38
				c0-0.673,0.554-1.188,1.228-1.188H40.031z M34.368,3.608v22.809h5.623c3.287,0,5.939-2.653,5.939-5.94
				c0-2.534-1.584-4.791-3.999-5.623c-0.634-0.198-1.307-0.317-1.941-0.317H38.17c-0.673,0-1.228-0.555-1.228-1.228
				s0.554-1.227,1.228-1.227h1.821c1.188,0,2.415,0.277,2.97,0.554c1.267-0.951,2.059-2.415,2.059-4.039
				c0-2.732-2.218-4.989-4.99-4.989H34.368z"/>
			<path fill="#D1D3D4" d="M40.11,29.629h-6.969c-1.094,0-1.985-0.89-1.985-1.985V2.381c0-1.072,0.89-1.945,1.985-1.945h6.89
				c4.522,0,8.201,3.661,8.201,8.162c0,1.944-0.694,3.819-1.927,5.26c1.813,1.753,2.838,4.124,2.838,6.619
				C49.143,25.523,45.091,29.629,40.11,29.629z M33.141,1.949c-0.264,0-0.471,0.189-0.471,0.431v25.263
				c0,0.255,0.216,0.471,0.471,0.471h6.969c4.146,0,7.519-3.426,7.519-7.638c0-2.306-1.053-4.488-2.889-5.987l-0.668-0.545
				l0.626-0.591c1.283-1.213,2.019-2.946,2.019-4.756c0-3.666-3-6.648-6.687-6.648H33.141z M39.991,27.174h-6.38V2.851h6.419
				c3.169,0,5.746,2.578,5.746,5.746c0,1.825-0.861,3.518-2.361,4.644l-0.374,0.28l-0.418-0.209
				c-0.395-0.197-1.472-0.475-2.632-0.475H38.17c-0.255,0-0.471,0.215-0.471,0.471c0,0.255,0.216,0.471,0.471,0.471h1.821
				c0.682,0,1.431,0.122,2.166,0.351c2.718,0.936,4.53,3.483,4.53,6.345C46.688,24.17,43.684,27.174,39.991,27.174z M35.125,25.66
				h4.866c2.858,0,5.183-2.325,5.183-5.183c0-2.216-1.402-4.189-3.488-4.908c-0.571-0.178-1.164-0.275-1.694-0.275H38.17
				c-1.094,0-1.985-0.89-1.985-1.984s0.89-1.984,1.985-1.984h1.821c0.962,0,2.064,0.177,2.837,0.442
				c0.917-0.825,1.434-1.959,1.434-3.169c0-2.334-1.899-4.232-4.232-4.232h-4.906V25.66z"/>
		</g>
		<g>
			<path fill="#D1D3D4" d="M81.409,14.972c0,7.88-6.375,14.256-14.216,14.256c-7.88,0-14.255-6.376-14.255-14.256
				c0-7.84,6.375-14.216,14.255-14.216C75.034,0.757,81.409,7.132,81.409,14.972z M55.393,14.972c0,6.534,5.267,11.8,11.8,11.8
				c6.494,0,11.801-5.266,11.801-11.8c0-6.494-5.306-11.8-11.801-11.8C60.66,3.172,55.393,8.478,55.393,14.972z"/>
			<path fill="#D1D3D4" d="M67.193,29.985c-8.278,0-15.012-6.735-15.012-15.012C52.181,6.717,58.915,0,67.193,0
				c8.256,0,14.973,6.717,14.973,14.972C82.166,23.25,75.449,29.985,67.193,29.985z M67.193,1.514
				c-7.443,0-13.498,6.037-13.498,13.459c0,7.443,6.055,13.499,13.498,13.499c7.421,0,13.459-6.055,13.459-13.499
				C80.652,7.551,74.614,1.514,67.193,1.514z M67.193,27.529c-6.923,0-12.556-5.633-12.556-12.557S60.27,2.415,67.193,2.415
				c6.924,0,12.558,5.633,12.558,12.557S74.117,27.529,67.193,27.529z M67.193,3.929c-6.089,0-11.043,4.954-11.043,11.044
				s4.954,11.043,11.043,11.043c6.09,0,11.044-4.954,11.044-11.043S73.283,3.929,67.193,3.929z"/>
		</g>
		<g>
			<path fill="#D1D3D4" d="M105.046,2.024v17.898c0,4.95-4,8.949-8.95,8.949c-4.949,0-8.949-4-8.949-8.949V2.024
				c0-0.713,0.554-1.228,1.228-1.228c0.673,0,1.228,0.515,1.228,1.228v17.898c0,3.604,2.89,6.494,6.494,6.494
				c3.604,0,6.494-2.891,6.494-6.494V2.024c0-0.713,0.554-1.228,1.228-1.228C104.491,0.796,105.046,1.311,105.046,2.024z"/>
			<path fill="#D1D3D4" d="M96.097,29.629c-5.352,0-9.706-4.354-9.706-9.706V2.024c0-1.113,0.872-1.984,1.984-1.984
				c1.113,0,1.984,0.872,1.984,1.984v17.899c0,3.164,2.574,5.737,5.737,5.737c3.164,0,5.737-2.574,5.737-5.737V2.024
				c0-1.113,0.872-1.984,1.984-1.984c1.113,0,1.985,0.872,1.985,1.984v17.899C105.803,25.274,101.449,29.629,96.097,29.629z
				 M88.375,1.553c-0.227,0-0.471,0.147-0.471,0.471v17.899c0,4.517,3.675,8.192,8.192,8.192c4.518,0,8.193-3.675,8.193-8.192V2.024
				c0-0.609-0.942-0.658-0.942,0v17.899c0,3.998-3.253,7.251-7.251,7.251c-3.998,0-7.251-3.253-7.251-7.251V2.024
				C88.846,1.701,88.602,1.553,88.375,1.553z"/>
		</g>
		<g>
			<path fill="#D1D3D4" d="M128.961,1.153c0.673,0,1.228,0.515,1.228,1.188c0,0.673-0.555,1.227-1.228,1.227h-7.445v24.076
				c0,0.673-0.515,1.228-1.187,1.228c-0.673,0-1.228-0.554-1.228-1.228V3.568h-7.444c-0.673,0-1.228-0.554-1.228-1.227
				c0-0.673,0.554-1.188,1.228-1.188H128.961z"/>
			<path fill="#D1D3D4" d="M120.328,29.629c-1.094,0-1.984-0.89-1.984-1.985V4.325h-6.687c-1.094,0-1.984-0.89-1.984-1.984
				c0-1.072,0.89-1.945,1.984-1.945h17.304c1.094,0,1.984,0.873,1.984,1.945c0,1.094-0.89,1.984-1.984,1.984h-6.688v23.319
				C122.273,28.738,121.401,29.629,120.328,29.629z M111.657,1.909c-0.264,0-0.471,0.189-0.471,0.431
				c0,0.255,0.215,0.471,0.471,0.471h8.201v24.832c0,0.255,0.215,0.471,0.471,0.471c0.241,0,0.431-0.207,0.431-0.471V2.811h8.202
				c0.255,0,0.471-0.215,0.471-0.471c0-0.242-0.206-0.431-0.471-0.431H111.657z"/>
		</g>
	</g>
</g>
</svg>
