<?xml version="1.0" encoding="utf-8"?>
<!-- Generator: Adobe Illustrator 17.0.0, SVG Export Plug-In . SVG Version: 6.00 Build 0)  -->
<!DOCTYPE svg PUBLIC "-//W3C//DTD SVG 1.1//EN" "http://www.w3.org/Graphics/SVG/1.1/DTD/svg11.dtd">
<svg version="1.1" id="Layer_1" xmlns="http://www.w3.org/2000/svg" xmlns:xlink="http://www.w3.org/1999/xlink" x="0px" y="0px"
	 width="185.282px" height="29.684px" viewBox="0 0 185.282 29.684" enable-background="new 0 0 185.282 29.684"
	 xml:space="preserve">
<g>
	<g>
		<g>
			<path fill="#D1D3D4" d="M24.785,4.899c0.468,0.469,0.468,1.25,0,1.719c-0.469,0.468-1.25,0.468-1.719,0
				c-2.188-2.227-5.119-3.438-8.205-3.438c-6.447,0-11.643,5.235-11.643,11.642c0,6.447,5.196,11.643,11.643,11.643
				c3.086,0,6.017-1.211,8.205-3.399c0.469-0.469,1.25-0.469,1.719,0c0.468,0.469,0.468,1.25,0,1.719
				c-2.657,2.657-6.173,4.103-9.924,4.103c-7.775,0-14.065-6.291-14.065-14.066c0-7.736,6.29-14.026,14.065-14.026
				C18.612,0.796,22.128,2.242,24.785,4.899z"/>
			<path fill="#D1D3D4" d="M14.861,29.684C6.667,29.684,0,23.017,0,14.822C0,6.649,6.667,0,14.861,0
				c3.966,0,7.691,1.54,10.487,4.336c0.783,0.784,0.783,2.06,0.001,2.844c-0.755,0.755-2.091,0.754-2.845,0.001
				c-2.033-2.069-4.745-3.206-7.642-3.206c-5.982,0-10.847,4.866-10.847,10.847S8.88,25.669,14.861,25.669
				c2.886,0,5.6-1.124,7.642-3.166c0.754-0.754,2.09-0.754,2.845,0c0.783,0.784,0.783,2.06,0.001,2.844
				C22.551,28.144,18.827,29.684,14.861,29.684z M14.861,1.592c-7.317,0-13.269,5.935-13.269,13.23
				c0,7.317,5.952,13.27,13.269,13.27c3.541,0,6.865-1.375,9.361-3.87c0.158-0.158,0.158-0.436-0.001-0.594
				c-0.205-0.205-0.387-0.206-0.593,0.001c-2.343,2.343-5.457,3.632-8.768,3.632c-6.859,0-12.439-5.58-12.439-12.439
				S8.002,2.383,14.861,2.383c3.328,0,6.443,1.306,8.773,3.676c0.196,0.196,0.382,0.201,0.589-0.005
				c0.158-0.158,0.158-0.435-0.001-0.594C21.727,2.966,18.403,1.592,14.861,1.592z"/>
		</g>
		<g>
			<path fill="#D1D3D4" d="M57.913,14.822c0,7.775-6.29,14.066-14.026,14.066c-7.775,0-14.065-6.291-14.065-14.066
				c0-7.736,6.29-14.026,14.065-14.026C51.623,0.796,57.913,7.086,57.913,14.822z M32.244,14.822
				c0,6.447,5.196,11.643,11.643,11.643c6.407,0,11.642-5.196,11.642-11.643c0-6.407-5.235-11.642-11.642-11.642
				C37.441,3.18,32.244,8.415,32.244,14.822z"/>
			<path fill="#D1D3D4" d="M43.887,29.684c-8.194,0-14.861-6.667-14.861-14.862C29.027,6.649,35.693,0,43.887,0
				c8.173,0,14.822,6.649,14.822,14.822C58.709,23.017,52.06,29.684,43.887,29.684z M43.887,1.592
				c-7.316,0-13.269,5.935-13.269,13.23c0,7.317,5.952,13.27,13.269,13.27c7.295,0,13.23-5.953,13.23-13.27
				C57.118,7.527,51.182,1.592,43.887,1.592z M43.887,27.261c-6.859,0-12.439-5.58-12.439-12.439s5.58-12.439,12.439-12.439
				c6.858,0,12.438,5.58,12.438,12.439S50.745,27.261,43.887,27.261z M43.887,3.975c-5.981,0-10.847,4.866-10.847,10.847
				s4.866,10.847,10.847,10.847c5.98,0,10.846-4.866,10.846-10.847S49.868,3.975,43.887,3.975z"/>
		</g>
		<g>
			<path fill="#D1D3D4" d="M84.087,2.398v25.005c0,0.977-1.446,1.64-2.188,0.625L66.388,6.188v21.136
				c0,0.664-0.547,1.211-1.211,1.211s-1.211-0.547-1.211-1.211V2.32c0-1.016,1.446-1.602,2.188-0.625l15.511,21.84V2.398
				c0-0.664,0.547-1.211,1.211-1.211C83.54,1.187,84.087,1.734,84.087,2.398z"/>
			<path fill="#D1D3D4" d="M82.854,29.331c-0.637,0-1.204-0.296-1.597-0.834L67.184,8.683v18.641c0,1.107-0.901,2.007-2.007,2.007
				s-2.007-0.901-2.007-2.007V2.32c0-1.059,0.902-1.921,2.011-1.921c0.627,0,1.213,0.296,1.607,0.814L80.869,21.04V2.399
				c0-1.107,0.901-2.007,2.007-2.007s2.007,0.901,2.007,2.007v25.004C84.883,28.448,83.954,29.331,82.854,29.331z M65.592,3.693
				l16.955,23.874c0.113,0.154,0.229,0.173,0.306,0.173c0.212,0,0.437-0.173,0.437-0.337V2.399c0-0.225-0.19-0.416-0.416-0.416
				s-0.416,0.19-0.416,0.416V26.03L65.505,2.155c-0.198-0.26-0.743-0.151-0.744,0.164v25.004c0,0.225,0.19,0.416,0.415,0.416
				c0.225,0,0.416-0.19,0.416-0.416V3.693z"/>
		</g>
		<g>
			<path fill="#D1D3D4" d="M108.073,1.187c0.664,0,1.211,0.508,1.211,1.172c0,0.664-0.548,1.21-1.211,1.21h-7.346v23.754
				c0,0.664-0.508,1.211-1.172,1.211c-0.664,0-1.211-0.547-1.211-1.211V3.57H91c-0.664,0-1.211-0.547-1.211-1.21
				c0-0.664,0.547-1.172,1.211-1.172H108.073z"/>
			<path fill="#D1D3D4" d="M99.556,29.331c-1.107,0-2.007-0.901-2.007-2.007V4.366h-6.549c-1.107,0-2.007-0.9-2.007-2.007
				c0-1.085,0.9-1.968,2.007-1.968h17.074c1.107,0,2.007,0.883,2.007,1.968c0,1.107-0.901,2.007-2.007,2.007h-6.55v22.958
				C101.523,28.431,100.641,29.331,99.556,29.331z M90.999,1.983c-0.237,0-0.415,0.162-0.415,0.376c0,0.225,0.19,0.415,0.415,0.415
				h8.141v24.55c0,0.225,0.19,0.416,0.415,0.416c0.214,0,0.376-0.179,0.376-0.416V2.774h8.142c0.225,0,0.416-0.19,0.416-0.415
				c0-0.215-0.179-0.376-0.416-0.376H90.999z"/>
		</g>
		<g>
			<path fill="#D1D3D4" d="M123.933,1.929l11.135,24.927c0.234,0.586-0.04,1.289-0.626,1.563c-0.469,0.234-1.289,0.078-1.602-0.587
				l-3.126-7.032h-14.065l-3.282,7.032c-0.312,0.664-1.133,0.821-1.602,0.587c-0.625-0.273-0.859-0.977-0.586-1.602L121.706,1.89
				c0.196-0.43,0.626-0.703,1.133-0.664C123.309,1.226,123.738,1.499,123.933,1.929z M122.8,5.328l-6.056,13.05h11.878L122.8,5.328z
				"/>
			<path fill="#D1D3D4" d="M133.972,29.317c-0.797,0-1.523-0.45-1.851-1.146l-2.923-6.576h-13.041l-3.067,6.574
				c-0.329,0.698-1.055,1.148-1.852,1.148c-0.297,0-0.583-0.065-0.826-0.187c-0.978-0.427-1.416-1.591-0.96-2.634l11.532-24.941
				c0.316-0.695,0.991-1.13,1.76-1.13l0.156,0.006c0.743-0.035,1.434,0.457,1.758,1.167l11.137,24.932
				c0.402,1.005-0.059,2.162-1.015,2.608C134.555,29.253,134.269,29.317,133.972,29.317z M115.144,20.004h15.088l3.336,7.505
				c0.098,0.21,0.373,0.217,0.403,0.217c0.062,0,0.103-0.012,0.116-0.019c0.217-0.102,0.321-0.357,0.241-0.556L123.207,2.254
				c-0.065-0.142-0.222-0.245-0.38-0.232c-0.278,0-0.363,0.123-0.396,0.197L110.903,27.15c-0.078,0.178-0.059,0.434,0.183,0.539
				c0.049,0.023,0.09,0.036,0.152,0.036c0.031,0,0.305-0.007,0.411-0.232L115.144,20.004z M129.848,19.174h-14.351l7.317-15.767
				L129.848,19.174z M117.991,17.582h9.404l-4.61-10.332L117.991,17.582z"/>
		</g>
		<g>
			<path fill="#D1D3D4" d="M162.649,4.899c0.468,0.469,0.468,1.25,0,1.719c-0.469,0.468-1.25,0.468-1.719,0
				c-2.188-2.227-5.119-3.438-8.205-3.438c-6.447,0-11.643,5.235-11.643,11.642c0,6.447,5.196,11.643,11.643,11.643
				c3.086,0,6.017-1.211,8.205-3.399c0.469-0.469,1.25-0.469,1.719,0c0.468,0.469,0.468,1.25,0,1.719
				c-2.657,2.657-6.173,4.103-9.924,4.103c-7.775,0-14.065-6.291-14.065-14.066c0-7.736,6.29-14.026,14.065-14.026
				C156.476,0.796,159.992,2.242,162.649,4.899z"/>
			<path fill="#D1D3D4" d="M152.725,29.684c-8.195,0-14.861-6.667-14.861-14.862C137.864,6.649,144.531,0,152.725,0
				c3.967,0,7.691,1.54,10.486,4.336c0.783,0.784,0.783,2.06,0.001,2.845c-0.755,0.755-2.09,0.753-2.845,0.001
				c-2.033-2.069-4.745-3.206-7.642-3.206c-5.982,0-10.847,4.866-10.847,10.847s4.866,10.847,10.847,10.847
				c2.886,0,5.6-1.124,7.642-3.166c0.753-0.755,2.089-0.755,2.844,0c0.783,0.784,0.783,2.06,0.001,2.844
				C160.416,28.144,156.692,29.684,152.725,29.684z M152.725,1.592c-7.317,0-13.269,5.935-13.269,13.23
				c0,7.317,5.952,13.27,13.269,13.27c3.541,0,6.865-1.375,9.361-3.87c0.158-0.158,0.158-0.435-0.001-0.593
				c-0.206-0.208-0.388-0.206-0.593,0c-2.343,2.343-5.457,3.632-8.768,3.632c-6.859,0-12.439-5.58-12.439-12.439
				s5.58-12.439,12.439-12.439c3.328,0,6.443,1.306,8.773,3.676c0.196,0.196,0.382,0.202,0.588-0.005
				c0.158-0.158,0.158-0.435-0.001-0.593C159.591,2.966,156.267,1.592,152.725,1.592z"/>
		</g>
		<g>
			<path fill="#D1D3D4" d="M183.275,1.187c0.664,0,1.211,0.508,1.211,1.172c0,0.664-0.547,1.21-1.211,1.21h-7.345v23.754
				c0,0.664-0.508,1.211-1.172,1.211c-0.664,0-1.211-0.547-1.211-1.211V3.57h-7.345c-0.664,0-1.211-0.547-1.211-1.21
				c0-0.664,0.547-1.172,1.211-1.172H183.275z"/>
			<path fill="#D1D3D4" d="M174.758,29.331c-1.107,0-2.007-0.901-2.007-2.007V4.366h-6.549c-1.107,0-2.007-0.9-2.007-2.007
				c0-1.085,0.901-1.968,2.007-1.968h17.074c1.107,0,2.007,0.883,2.007,1.968c0,1.107-0.9,2.007-2.007,2.007h-6.549v22.958
				C176.727,28.431,175.844,29.331,174.758,29.331z M166.202,1.983c-0.237,0-0.416,0.162-0.416,0.376
				c0,0.225,0.19,0.415,0.416,0.415h8.141v24.55c0,0.225,0.19,0.416,0.416,0.416c0.215,0,0.377-0.179,0.377-0.416V2.774h8.141
				c0.225,0,0.415-0.19,0.415-0.415c0-0.215-0.178-0.376-0.415-0.376H166.202z"/>
		</g>
	</g>
</g>
</svg>
