<?xml version="1.0" encoding="utf-8"?>
<!-- Generator: Adobe Illustrator 17.0.0, SVG Export Plug-In . SVG Version: 6.00 Build 0)  -->
<!DOCTYPE svg PUBLIC "-//W3C//DTD SVG 1.1//EN" "http://www.w3.org/Graphics/SVG/1.1/DTD/svg11.dtd">
<svg version="1.1" id="Layer_1" xmlns="http://www.w3.org/2000/svg" xmlns:xlink="http://www.w3.org/1999/xlink" x="0px" y="0px"
	 width="209.403px" height="26.152px" viewBox="0 0 209.403 26.152" enable-background="new 0 0 209.403 26.152"
	 xml:space="preserve">
<g>
	<g>
		<g>
			<path fill="#D1D3D4" d="M10.89,1.288c0.575,0,1.049,0.473,1.049,1.049v17.183c0,3.145-2.571,5.716-5.75,5.716
				c-2.199,0-4.228-1.285-5.175-3.281c-0.237-0.506-0.034-1.149,0.507-1.386c0.507-0.237,1.116-0.034,1.386,0.506
				c0.609,1.252,1.894,2.064,3.281,2.064c2.029,0,3.653-1.623,3.653-3.619V3.385H5.444c-0.575,0-1.049-0.473-1.049-1.049
				s0.473-1.049,1.049-1.049H10.89z"/>
			<path fill="#D1D3D4" d="M6.189,26.152c-2.55,0-4.907-1.494-6.003-3.805c-0.225-0.481-0.246-1.038-0.059-1.534
				c0.185-0.491,0.55-0.876,1.028-1.085c0.241-0.112,0.518-0.175,0.805-0.175c0.748,0,1.426,0.426,1.769,1.111
				c0.461,0.95,1.426,1.557,2.461,1.557c1.509,0,2.736-1.212,2.736-2.702V4.302h-3.48c-1.084,0-1.965-0.882-1.965-1.965
				s0.882-1.965,1.965-1.965h5.445c1.084,0,1.965,0.882,1.965,1.965v17.183C12.855,23.176,9.864,26.152,6.189,26.152z M1.959,21.387
				L1.842,21.46c-0.013,0.034-0.012,0.075,0.002,0.106c0.793,1.671,2.499,2.753,4.345,2.753c2.665,0,4.833-2.153,4.833-4.799V2.337
				c0-0.069-0.063-0.132-0.132-0.132H5.444c-0.069,0-0.132,0.063-0.132,0.132s0.063,0.132,0.132,0.132h5.313v17.051
				c0,2.501-2.05,4.535-4.569,4.535c-1.732,0-3.344-1.012-4.105-2.58C2.046,21.4,1.989,21.387,1.959,21.387z"/>
		</g>
		<g>
			<path fill="#D1D3D4" d="M39.665,13.058c0,6.731-5.445,12.177-12.142,12.177c-6.731,0-12.176-5.446-12.176-12.177
				c0-6.696,5.445-12.142,12.176-12.142C34.22,0.917,39.665,6.362,39.665,13.058z M17.443,13.058c0,5.582,4.499,10.08,10.079,10.08
				c5.547,0,10.079-4.498,10.079-10.08c0-5.547-4.532-10.079-10.079-10.079C21.942,2.979,17.443,7.512,17.443,13.058z"/>
			<path fill="#D1D3D4" d="M27.523,26.152c-7.22,0-13.093-5.874-13.093-13.093C14.43,5.858,20.303,0,27.523,0
				c7.201,0,13.059,5.858,13.059,13.058C40.581,20.278,34.723,26.152,27.523,26.152z M27.523,1.833
				c-6.209,0-11.26,5.035-11.26,11.225c0,6.209,5.051,11.26,11.26,11.26c6.19,0,11.226-5.051,11.226-11.26
				C38.748,6.869,33.712,1.833,27.523,1.833z M27.523,24.055c-6.063,0-10.996-4.933-10.996-10.996S21.459,2.063,27.523,2.063
				s10.996,4.933,10.996,10.996S33.586,24.055,27.523,24.055z M27.523,3.896c-5.052,0-9.162,4.11-9.162,9.162
				c0,5.052,4.11,9.163,9.162,9.163s9.162-4.11,9.162-9.163C36.685,8.006,32.575,3.896,27.523,3.896z"/>
		</g>
		<g>
			<path fill="#D1D3D4" d="M48.855,1.288c3.957,0,7.17,3.213,7.17,7.171c0,3.314-2.266,6.121-5.344,6.933l5.445,7.915
				c0.338,0.473,0.203,1.116-0.27,1.454c-0.474,0.271-1.082,0.237-1.455-0.27l-6.426-9.336c-0.473-0.71,0-1.623,0.879-1.623
				c2.807,0,5.074-2.3,5.074-5.073c0-2.807-2.266-5.108-5.074-5.108h-3.687v20.53c0,0.575-0.473,1.049-1.049,1.049
				c-0.575,0-1.048-0.473-1.048-1.049V2.303c0-0.575,0.473-1.015,1.048-1.015H48.855z"/>
			<path fill="#D1D3D4" d="M44.12,25.847c-1.084,0-1.965-0.882-1.965-1.965V2.303c0-1.065,0.881-1.932,1.965-1.932h4.736
				c4.459,0,8.087,3.628,8.087,8.088c0,3.238-1.932,6.124-4.827,7.4l4.767,6.929c0.301,0.421,0.415,0.948,0.314,1.472
				c-0.097,0.503-0.384,0.946-0.807,1.248l-0.077,0.05c-0.897,0.512-2.048,0.294-2.649-0.523l-6.442-9.358
				c-0.416-0.624-0.459-1.398-0.12-2.031c0.345-0.644,1-1.028,1.754-1.028c2.292,0,4.157-1.865,4.157-4.156
				c0-2.311-1.865-4.191-4.157-4.191h-2.77v19.613C46.085,24.965,45.203,25.847,44.12,25.847z M44.12,2.205
				c-0.053,0-0.132,0.026-0.132,0.098v21.579c0,0.138,0.264,0.138,0.264,0V2.435h4.604c3.303,0,5.99,2.702,5.99,6.024
				c0,3.303-2.687,5.99-5.99,5.99c-0.07,0-0.117,0.02-0.138,0.06c-0.021,0.039-0.014,0.085,0.021,0.138l6.418,9.324
				c0.053,0.07,0.119,0.048,0.194,0.018c0.037-0.043,0.06-0.11,0.03-0.15l-6.193-9.002l1.26-0.332
				c2.744-0.724,4.661-3.21,4.661-6.047c0-3.449-2.805-6.255-6.254-6.255H44.12z"/>
		</g>
		<g>
			<path fill="#D1D3D4" d="M65.048,1.288c6.494,0,11.804,5.276,11.804,11.805c0,6.528-5.31,11.838-11.804,11.838h-3.924
				c-0.575,0-1.048-0.473-1.048-1.049V2.303c0-0.575,0.473-1.015,1.048-1.015H65.048z M62.173,3.352v19.482h2.875
				c5.344,0,9.741-4.363,9.741-9.741s-4.397-9.741-9.741-9.741H62.173z"/>
			<path fill="#D1D3D4" d="M65.048,25.847h-3.924c-1.084,0-1.965-0.882-1.965-1.965V2.303c0-1.065,0.881-1.932,1.965-1.932h3.924
				c7.015,0,12.721,5.707,12.721,12.721C77.769,20.125,72.063,25.847,65.048,25.847z M61.124,2.205
				c-0.053,0-0.132,0.026-0.132,0.098v21.579c0,0.069,0.063,0.132,0.132,0.132h3.924c6.004,0,10.888-4.899,10.888-10.921
				c0-6.004-4.884-10.888-10.888-10.888H61.124z M65.048,23.75h-3.792V2.435h3.792c5.877,0,10.658,4.781,10.658,10.658
				C75.706,18.969,70.925,23.75,65.048,23.75z M63.09,21.917h1.959c4.866,0,8.825-3.959,8.825-8.824
				c0-4.866-3.959-8.825-8.825-8.825H63.09V21.917z"/>
		</g>
		<g>
			<path fill="#D1D3D4" d="M89.054,1.897l9.64,21.579c0.203,0.507-0.034,1.116-0.541,1.353c-0.406,0.203-1.116,0.068-1.387-0.507
				l-2.706-6.088H81.883l-2.841,6.088c-0.27,0.575-0.981,0.71-1.387,0.507c-0.541-0.237-0.744-0.846-0.507-1.386l9.978-21.579
				c0.169-0.372,0.541-0.609,0.981-0.575C88.513,1.288,88.885,1.525,89.054,1.897z M88.073,4.84L82.83,16.137h10.282L88.073,4.84z"
				/>
			<path fill="#D1D3D4" d="M97.744,25.834c-0.778,0-1.487-0.44-1.808-1.122l-2.472-5.561H82.467l-2.594,5.559
				c-0.322,0.684-1.031,1.125-1.809,1.125c-0.292,0-0.575-0.064-0.818-0.185c-0.431-0.187-0.794-0.562-0.979-1.037
				c-0.192-0.492-0.178-1.038,0.042-1.538l9.985-21.596c0.311-0.683,0.975-1.11,1.731-1.11l0.152,0.006c0.002,0,0.004,0,0.006,0
				c0.694,0,1.391,0.449,1.706,1.144l9.642,21.584c0.397,0.988-0.054,2.12-0.99,2.557C98.319,25.77,98.036,25.834,97.744,25.834z
				 M88.107,2.205l-0.001,0.003l-0.148,0.04l-9.977,21.58c-0.014,0.034-0.019,0.084-0.006,0.118l0.09,0.064
				c0.029-0.008,0.121-0.021,0.148-0.077l3.087-6.615h13.356l2.948,6.632c0.029,0.059,0.164,0.051,0.164,0.05
				c0.065-0.032,0.098-0.128,0.076-0.182L88.217,2.271C88.199,2.233,88.156,2.205,88.107,2.205z M94.525,17.053H81.394l6.695-14.426
				L94.525,17.053z M84.266,15.22H91.7l-3.644-8.168L84.266,15.22z"/>
		</g>
		<g>
			<path fill="#D1D3D4" d="M119.248,2.303V23.95c0,0.846-1.252,1.421-1.894,0.542L103.926,5.584v18.298
				c0,0.575-0.473,1.049-1.049,1.049c-0.575,0-1.048-0.473-1.048-1.049V2.235c0-0.879,1.251-1.386,1.894-0.541l13.428,18.907V2.303
				c0-0.575,0.474-1.049,1.049-1.049C118.775,1.254,119.248,1.729,119.248,2.303z"/>
			<path fill="#D1D3D4" d="M118.18,25.847c-0.617,0-1.187-0.297-1.566-0.815L104.843,8.458v15.424c0,1.084-0.882,1.965-1.965,1.965
				s-1.965-0.882-1.965-1.965V2.235c0-1.042,0.883-1.89,1.968-1.89c0.615,0,1.188,0.29,1.572,0.794l11.782,16.589V2.303
				c0-1.084,0.882-1.965,1.965-1.965s1.965,0.882,1.965,1.965V23.95C120.165,24.978,119.256,25.847,118.18,25.847z M103.01,2.71
				l15.092,21.251c0.039,0.054,0.064,0.054,0.079,0.054c0.068,0,0.142-0.055,0.155-0.084l-0.003-21.627c0-0.137-0.264-0.137-0.264,0
				v21.172l-15.092-21.25c-0.036-0.047-0.073-0.047-0.095-0.047c-0.068,0-0.128,0.046-0.137,0.064l0.002,21.64
				c0,0.138,0.264,0.138,0.264,0V2.71z"/>
		</g>
		<g>
			<path fill="#D1D3D4" d="M154.336,2.167l3.213,21.579c0.102,0.575-0.237,1.082-0.812,1.183c-0.744,0.068-1.184-0.406-1.252-0.879
				l-2.773-18.636l-7.543,12.852c-0.473,0.812-1.387,0.812-1.793,0l-6.358-12.548l-2.74,18.332
				c-0.067,0.508-0.575,0.947-1.184,0.879c-0.575-0.101-0.947-0.608-0.879-1.183l3.247-21.579c0.068-0.439,0.406-0.812,0.846-0.879
				c0.474-0.067,0.913,0.169,1.116,0.575l6.934,13.698l8.05-13.766c0.203-0.372,0.643-0.575,1.082-0.508
				C153.931,1.39,154.269,1.729,154.336,2.167z"/>
			<path fill="#D1D3D4" d="M133.22,25.854c-0.074,0-0.15-0.004-0.226-0.013c-1.112-0.193-1.813-1.136-1.688-2.202l3.251-21.609
				c0.13-0.846,0.793-1.523,1.613-1.649c0.107-0.016,0.204-0.022,0.299-0.022c0.759,0,1.439,0.419,1.776,1.094l6.172,12.193
				l7.2-12.313c0.367-0.675,1.182-1.081,2.013-0.951c0.882,0.202,1.488,0.842,1.613,1.645l3.213,21.584
				c0.087,0.492-0.018,1.005-0.301,1.42c-0.289,0.425-0.736,0.71-1.259,0.802c-0.152,0.017-0.227,0.021-0.3,0.021
				c-1.168,0-1.899-0.842-2.018-1.673l-2.39-16.061l-6.228,10.612c-0.387,0.664-1.027,1.062-1.712,1.062
				c-0.709,0-1.341-0.417-1.691-1.116l-5.057-9.98l-2.315,15.489C135.06,25.131,134.214,25.854,133.22,25.854z M136.469,2.193
				c-0.043,0.004-0.09,0.051-0.1,0.114l-3.247,21.576c-0.002,0.024,0.004,0.107,0.103,0.137c0.091-0.002,0.141-0.074,0.146-0.092
				l3.166-21.187l7.658,15.111c0.034,0.068,0.064,0.099,0.077,0.11c-0.01-0.013,0.046-0.055,0.105-0.157l8.859-15.095l3.156,21.205
				c0.002,0.015,0.02,0.104,0.204,0.104c0.028-0.001,0.058-0.069,0.05-0.115L153.43,2.303c-0.01-0.066-0.082-0.107-0.146-0.122
				c-0.021,0.011-0.062,0.039-0.07,0.053l-8.913,15.243l-7.694-15.2C136.579,2.222,136.53,2.193,136.469,2.193z"/>
		</g>
		<g>
			<path fill="#D1D3D4" d="M176.616,1.998v15.288c0,4.228-3.416,7.644-7.644,7.644s-7.644-3.416-7.644-7.644V1.998
				c0-0.608,0.473-1.049,1.048-1.049c0.575,0,1.049,0.44,1.049,1.049v15.288c0,3.078,2.469,5.547,5.547,5.547
				c3.078,0,5.547-2.469,5.547-5.547V1.998c0-0.608,0.474-1.049,1.049-1.049C176.142,0.95,176.616,1.39,176.616,1.998z"/>
			<path fill="#D1D3D4" d="M168.972,25.847c-4.72,0-8.56-3.84-8.56-8.56V1.998c0-1.102,0.863-1.965,1.965-1.965
				c1.102,0,1.965,0.863,1.965,1.965v15.288c0,2.553,2.077,4.63,4.63,4.63c2.553,0,4.63-2.077,4.63-4.63V1.998
				c0-1.102,0.863-1.965,1.965-1.965c1.102,0,1.965,0.863,1.965,1.965v15.288C177.533,22.007,173.692,25.847,168.972,25.847z
				 M162.377,1.866c-0.049,0-0.132,0.017-0.132,0.132v15.288c0,3.709,3.018,6.727,6.727,6.727c3.71,0,6.728-3.018,6.728-6.727V1.998
				c0-0.23-0.264-0.23-0.264,0v15.288c0,3.564-2.9,6.464-6.464,6.464s-6.463-2.9-6.463-6.464V1.998
				C162.509,1.883,162.426,1.866,162.377,1.866z"/>
		</g>
		<g>
			<path fill="#D1D3D4" d="M188.445,1.288c0.575,0,1.048,0.44,1.048,1.015s-0.473,1.049-1.048,1.049h-2.638v19.482h2.638
				c0.575,0,1.048,0.473,1.048,1.048c0,0.575-0.473,1.049-1.048,1.049h-7.373c-0.575,0-1.049-0.473-1.049-1.049
				c0-0.575,0.473-1.048,1.049-1.048h2.638V3.352h-2.638c-0.575,0-1.049-0.474-1.049-1.049s0.473-1.015,1.049-1.015H188.445z"/>
			<path fill="#D1D3D4" d="M188.445,25.847h-7.373c-1.084,0-1.965-0.882-1.965-1.965c0-1.084,0.882-1.965,1.965-1.965h1.721V4.268
				h-1.721c-1.084,0-1.965-0.882-1.965-1.965c0-1.065,0.882-1.932,1.965-1.932h7.373c1.084,0,1.965,0.866,1.965,1.932
				c0,1.084-0.881,1.965-1.965,1.965h-1.722v17.649h1.722c1.084,0,1.965,0.881,1.965,1.965
				C190.41,24.965,189.529,25.847,188.445,25.847z M181.072,23.75c-0.069,0-0.132,0.063-0.132,0.132
				c0,0.069,0.063,0.132,0.132,0.132h7.373c0.069,0,0.132-0.063,0.132-0.132c0-0.069-0.063-0.132-0.132-0.132h-3.555V2.435h3.555
				c0.069,0,0.132-0.063,0.132-0.132c0-0.072-0.079-0.098-0.132-0.098h-7.373c-0.053,0-0.132,0.026-0.132,0.098
				c0,0.069,0.063,0.132,0.132,0.132h3.555V23.75H181.072z"/>
		</g>
		<g>
			<path fill="#D1D3D4" d="M201.026,1.288c3.957,0,7.17,3.213,7.17,7.171c0,3.314-2.266,6.121-5.344,6.933l5.445,7.915
				c0.338,0.473,0.203,1.116-0.27,1.454c-0.474,0.271-1.082,0.237-1.455-0.27l-6.426-9.336c-0.473-0.71,0-1.623,0.879-1.623
				c2.807,0,5.074-2.3,5.074-5.073c0-2.807-2.266-5.108-5.074-5.108h-3.687v20.53c0,0.575-0.473,1.049-1.049,1.049
				c-0.575,0-1.048-0.473-1.048-1.049V2.303c0-0.575,0.473-1.015,1.048-1.015H201.026z"/>
			<path fill="#D1D3D4" d="M196.29,25.847c-1.084,0-1.965-0.882-1.965-1.965V2.303c0-1.065,0.881-1.932,1.965-1.932h4.735
				c4.459,0,8.087,3.628,8.087,8.088c0,3.239-1.932,6.124-4.827,7.4l4.767,6.929c0.301,0.42,0.415,0.948,0.314,1.472
				c-0.098,0.503-0.384,0.946-0.807,1.248l-0.078,0.05c-0.899,0.513-2.049,0.294-2.648-0.524l-6.443-9.358
				c-0.416-0.624-0.459-1.399-0.12-2.032c0.345-0.644,1-1.028,1.754-1.028c2.292,0,4.157-1.865,4.157-4.156
				c0-2.311-1.865-4.191-4.157-4.191h-2.77v19.613C198.256,24.965,197.374,25.847,196.29,25.847z M196.29,2.205
				c-0.053,0-0.132,0.026-0.132,0.098v21.579c0,0.138,0.264,0.138,0.264,0V2.435h4.603c3.303,0,5.99,2.702,5.99,6.024
				c0,3.303-2.687,5.99-5.99,5.99c-0.07,0-0.117,0.02-0.138,0.06c-0.021,0.039-0.014,0.086,0.021,0.139l6.418,9.324
				c0.053,0.071,0.118,0.049,0.194,0.018c0.036-0.043,0.06-0.11,0.03-0.15l-6.193-9.002l1.26-0.332
				c2.744-0.724,4.661-3.21,4.661-6.047c0-3.449-2.805-6.255-6.254-6.255H196.29z"/>
		</g>
	</g>
</g>
</svg>
